<svg version="1.1" id="Layer_1" xmlns="http://www.w3.org/2000/svg" xmlns:xlink="http://www.w3.org/1999/xlink" x="0px" y="0px"
	 width="100%" viewBox="0 0 1024 1024" enable-background="new 0 0 1024 1024" xml:space="preserve">
<path fill="#000000" opacity="1.000000" stroke="none" 
	d="
M341.029999,320.054688 
	C337.884949,308.289642 332.914581,297.179413 328.760315,285.775848 
	C326.099823,278.472626 322.765533,271.408447 323.531708,263.174805 
	C324.460846,253.190262 331.967102,243.588791 341.670929,241.010223 
	C351.433868,238.415909 361.490021,242.187714 367.083099,251.416580 
	C372.948273,261.094421 378.050201,271.231445 383.652222,281.073029 
	C389.090454,290.626831 394.685669,300.092865 400.337036,309.522491 
	C401.654236,311.720367 402.749847,314.313873 406.184601,315.397217 
	C407.485626,309.144379 405.184662,303.468048 404.173889,297.791962 
	C398.966309,268.548523 394.018219,239.266006 389.561737,209.897629 
	C387.595337,196.939072 385.408417,184.008911 383.039001,171.117798 
	C379.459412,151.642593 392.828674,134.251892 411.281738,134.666901 
	C422.892212,134.928040 432.979370,142.852753 436.355133,155.436646 
	C441.950958,176.296173 447.033691,197.293411 452.323944,218.234818 
	C458.385193,242.228241 464.405396,266.232147 470.551971,290.203644 
	C471.053650,292.160248 471.049286,294.548767 473.533447,296.153595 
	C476.580048,289.842957 476.125427,283.089905 476.515961,276.675598 
	C477.880676,254.263672 478.708405,231.819077 479.739838,209.386871 
	C480.733246,187.782486 481.708588,166.177231 482.729614,144.574142 
	C483.059113,137.602875 483.171234,130.588135 484.732086,123.751648 
	C488.191681,108.598457 501.469696,98.769615 517.033325,99.679306 
	C530.773682,100.482422 542.406494,112.463875 544.493896,127.044708 
	C545.775879,135.999008 545.433960,144.981934 545.987915,153.935028 
	C546.994995,170.209961 546.855408,186.552902 547.369629,202.861938 
	C548.297852,232.306595 549.339233,261.747772 550.397705,291.188080 
	C550.461121,292.951080 551.091003,294.693665 551.634338,297.292175 
	C554.439331,293.054688 554.651428,288.858521 555.651855,284.982727 
	C566.657410,242.345901 577.835510,199.750687 588.385803,157.000824 
	C592.363098,140.885132 607.642822,132.748444 619.387390,135.007889 
	C638.637207,138.711243 646.049011,156.103516 643.916870,169.535400 
	C637.151245,212.156204 630.327881,254.768723 623.274841,297.342682 
	C619.583679,319.623688 616.287659,341.949982 614.537109,364.462402 
	C614.006287,371.289734 613.435364,378.324554 615.330383,385.062805 
	C618.397583,385.401489 619.354797,383.363098 620.639648,381.988831 
	C631.674316,370.185974 642.222351,357.926941 653.841919,346.672729 
	C659.589661,341.105652 665.267883,335.460266 672.368896,331.553040 
	C690.610779,321.515717 709.983398,330.467590 713.905273,350.807159 
	C715.060059,356.796326 713.683716,362.585846 710.731873,367.659149 
	C690.462097,402.496338 670.059509,437.256866 649.546631,471.951630 
	C642.072388,484.593292 631.460999,494.699646 620.464722,504.052063 
	C608.235718,514.453003 604.609314,527.642578 604.204224,542.630249 
	C604.138611,545.057922 604.656860,546.582825 607.033020,547.776917 
	C632.126160,560.386841 651.952637,579.122131 668.710938,601.335632 
	C687.417419,626.131470 699.396729,653.999573 704.038574,684.585266 
	C712.268005,738.810242 700.440613,788.515564 667.202271,832.429077 
	C636.785522,872.614746 596.883911,898.532349 547.308044,908.738037 
	C528.166626,912.678528 508.792145,913.183411 489.232117,911.549500 
	C440.401123,907.470459 399.516724,887.036743 365.519257,852.347473 
	C337.004486,823.252502 318.158508,788.675720 312.021027,748.332703 
	C303.208466,690.405640 315.641602,637.597412 353.790649,591.908142 
	C366.704346,576.442017 381.355377,562.970886 398.609802,552.503967 
	C401.484924,550.759827 401.966370,548.610229 401.614441,545.856750 
	C400.151428,534.411255 398.038452,523.203552 391.142181,513.463379 
	C374.965912,490.616364 367.584045,464.571564 363.590332,437.282104 
	C360.482483,416.045746 360.477234,394.536041 357.715515,373.272003 
	C355.898651,359.282806 350.541290,346.315491 346.248291,333.045959 
	C344.873260,328.795715 343.763672,324.403992 341.233887,320.254944 
	C341.010101,320.017609 341.029999,320.054688 341.029999,320.054688 
M598.721008,331.575958 
	C601.684509,312.400848 604.543213,293.208832 607.636414,274.054657 
	C612.081116,246.531845 616.740417,219.043716 621.213562,191.525421 
	C622.649963,182.689270 624.959167,173.950455 624.757568,164.904755 
	C624.603210,157.979874 618.797485,153.583817 612.589478,155.607727 
	C608.280273,157.012619 607.315674,160.901733 606.364441,164.606110 
	C597.643311,198.567184 589.019592,232.553314 580.284668,266.510834 
	C577.098389,278.897583 574.150330,291.375305 570.239563,303.536865 
	C566.968079,313.710571 557.757324,319.101105 548.742188,317.495972 
	C539.168884,315.791443 532.055725,307.188263 531.641174,296.906616 
	C530.715942,273.957001 529.613464,251.013489 528.852600,228.058548 
	C527.970093,201.435257 527.409241,174.801407 526.630371,148.174454 
	C526.464966,142.519775 526.079590,136.864502 525.581604,131.228409 
	C525.014587,124.811005 520.951538,120.520813 515.394409,120.128296 
	C509.042816,119.679657 505.176697,122.671173 503.984741,129.981720 
	C502.998779,136.028900 502.681915,142.204758 502.376190,148.338928 
	C501.845978,158.977478 501.649017,169.632416 501.142334,180.272400 
	C499.915985,206.025208 498.815918,231.787308 497.215881,257.517731 
	C496.370422,271.113251 496.449982,284.781769 494.333527,298.296722 
	C492.243713,311.641571 479.279480,320.238647 467.251587,316.040405 
	C459.530457,313.345428 455.936646,307.092957 453.876648,299.747070 
	C443.736237,263.586792 434.488770,227.194611 425.565155,190.717010 
	C423.117981,180.713577 420.390381,170.774857 417.587952,160.863983 
	C416.385284,156.610733 413.323395,154.603729 408.811005,155.394485 
	C404.551849,156.140900 402.584778,158.994019 402.319122,163.085709 
	C402.136139,165.904373 402.310760,168.712402 402.780090,171.537659 
	C405.363007,187.085876 407.786469,202.660492 410.336090,218.214340 
	C413.851318,239.658554 417.501068,261.080933 420.950867,282.535553 
	C422.583588,292.689697 424.701996,302.861694 425.143677,313.088501 
	C425.780487,327.832184 412.271912,338.447357 399.488922,334.152771 
	C394.169342,332.365631 390.602783,328.342133 387.620483,323.860809 
	C378.567505,310.257355 370.974213,295.795227 362.983826,281.567444 
	C359.397125,275.180908 355.863708,268.760345 352.089020,262.485840 
	C350.902588,260.513733 349.078979,258.689453 346.285370,259.798309 
	C343.679749,260.832581 342.594360,262.985992 342.364777,265.672821 
	C342.157776,268.094879 343.126556,270.245544 343.912872,272.428009 
	C351.469574,293.402008 359.680817,314.143066 366.512482,335.374329 
	C370.581207,348.018982 374.979065,360.599457 376.312500,373.943542 
	C378.294495,393.777313 378.725830,413.730408 381.195374,433.536133 
	C384.292114,458.372040 391.807037,481.510742 406.048157,502.273651 
	C410.522644,508.797211 413.613708,515.948914 415.391632,523.650208 
	C421.321564,549.336731 422.867767,575.535339 424.224091,601.734009 
	C424.421112,605.540405 425.611237,607.429382 429.135468,608.572083 
	C450.638550,615.544189 472.670410,619.351135 495.266296,619.628113 
	C507.408356,619.777039 519.548889,620.035339 531.685181,618.714233 
	C547.401672,617.003235 562.932922,614.539490 578.084045,609.904785 
	C580.518127,609.160156 581.699280,607.952515 581.769409,605.361206 
	C581.827576,603.213013 582.575806,601.075562 582.569458,598.934753 
	C582.502258,576.272339 585.076172,553.813354 587.665161,531.355469 
	C589.100159,518.907654 592.330383,507.152039 601.332092,497.795197 
	C605.487244,493.476135 609.721680,489.228699 614.031494,485.063965 
	C622.569336,476.813599 630.496948,468.049683 636.526428,457.766998 
	C652.365051,430.756012 668.106201,403.687866 683.876587,376.636932 
	C687.398987,370.594910 690.973755,364.580414 694.346436,358.455261 
	C696.183167,355.119537 696.341980,351.553650 693.243774,348.860016 
	C690.317444,346.315796 686.716614,345.388855 683.022034,347.175446 
	C680.795837,348.251953 678.702881,349.686584 676.735474,351.201172 
	C669.309082,356.918549 662.992676,363.807800 656.681335,370.674988 
	C648.115112,379.995636 639.967468,389.717560 631.124084,398.762573 
	C620.537415,409.590576 606.344177,407.022980 599.437988,393.542603 
	C596.965271,388.715973 595.822266,383.605743 595.637512,378.199921 
	C595.112854,362.849609 596.689026,347.647247 598.721008,331.575958 
z"/>
<path fill="#000000" opacity="1.000000" stroke="none" 
	d="
M341.000244,319.999329 
	C339.821106,321.597778 338.087219,321.955566 336.253082,322.381775 
	C323.314636,325.388367 310.434875,328.654022 297.470062,331.539032 
	C279.230286,335.597931 268.614777,347.094635 264.359192,364.886017 
	C260.614105,380.543182 258.166504,396.455170 255.380096,412.298309 
	C255.066086,414.083740 255.029694,415.905670 253.098038,417.537262 
	C250.671875,410.376556 250.254379,403.061432 248.737000,395.999176 
	C246.404282,385.142273 245.066925,374.089874 241.965103,363.374420 
	C237.379150,347.531921 227.464676,336.961060 211.524597,332.613525 
	C197.912369,328.900940 184.146301,325.751801 170.444672,322.368134 
	C168.552200,321.900757 166.571548,321.707886 164.844345,320.477112 
	C166.055908,317.920868 168.634903,318.429901 170.525482,317.957062 
	C182.924469,314.855957 195.291367,311.496948 207.844559,309.171265 
	C228.305847,305.380463 238.658371,292.527252 242.673569,273.046570 
	C246.089325,256.474335 248.821396,239.787323 251.725586,223.127014 
	C252.028961,221.386719 252.675262,219.706192 253.513107,216.768387 
	C256.253571,225.439697 256.876373,233.203735 258.349121,240.786362 
	C260.592010,252.334061 262.887085,263.871887 265.067505,275.431366 
	C268.699341,294.685364 280.346497,305.717957 299.371460,309.617767 
	C311.561676,312.116577 323.660004,315.066406 335.784943,317.877075 
	C337.377472,318.246246 338.883087,318.990448 340.729492,319.807800 
	C341.029999,320.054688 341.010101,320.017609 341.000244,319.999329 
z"/>
<path fill="#000000" opacity="1.000000" stroke="none" 
	d="
M815.899292,454.105347 
	C824.795105,462.385925 836.035339,463.990082 846.822998,466.574005 
	C857.316528,469.087463 867.901367,471.220428 878.450928,473.498291 
	C880.059265,473.845581 881.763245,473.914276 883.152466,475.779388 
	C877.025757,478.374969 870.537048,478.786407 864.346619,480.282379 
	C853.364258,482.936310 842.316162,485.288910 831.455872,488.464905 
	C815.476746,493.137787 807.248779,504.489685 803.335510,519.923157 
	C799.944214,533.297913 797.984192,546.943481 795.281250,560.447327 
	C794.809204,562.805298 794.735962,565.380188 792.420776,567.909485 
	C789.933228,562.263428 789.759033,556.625427 788.755676,551.255188 
	C786.866211,541.141357 785.140991,531.010254 782.749023,520.986328 
	C778.224548,502.025574 766.593750,490.570435 747.594543,486.356384 
	C734.783936,483.514923 722.031555,480.411896 709.237610,477.493713 
	C707.603149,477.120911 706.006531,476.844513 704.537720,475.574066 
	C706.240723,473.114380 708.971741,473.279083 711.221191,472.754974 
	C722.857910,470.043854 734.467529,467.114594 746.224243,465.042542 
	C768.234863,461.163239 779.010315,447.196228 782.630798,426.241791 
	C785.228271,411.208527 787.958435,396.198212 790.607788,381.173828 
	C790.924438,379.377960 791.252502,377.612579 792.624573,375.802124 
	C795.176697,378.555573 794.702271,382.013855 795.282471,385.046173 
	C798.305725,400.845734 800.008179,416.898438 804.328857,432.448730 
	C806.536865,440.395508 809.743896,447.844818 815.899292,454.105347 
z"/>
<path fill="#000000" opacity="1.000000" stroke="none" 
	d="
M801.034119,278.073608 
	C786.049377,283.246399 779.592102,295.005310 776.489502,308.870056 
	C773.011414,324.412292 770.416565,340.152130 767.429504,355.804474 
	C767.310303,356.429260 767.108582,357.038300 766.821045,358.123413 
	C763.846741,355.538391 764.328918,352.143768 763.787231,349.316467 
	C761.101562,335.299194 759.048462,321.158997 755.614929,307.287476 
	C751.513123,290.716248 742.151367,279.521057 724.684814,275.815735 
	C710.232605,272.749847 695.947327,268.898193 681.581909,265.420135 
	C680.494751,265.156952 679.237061,265.330505 678.303040,263.189850 
	C684.873291,261.651886 691.190552,260.133575 697.526917,258.699890 
	C705.621643,256.868378 713.695312,254.914673 721.842529,253.349762 
	C742.599243,249.362854 753.171204,236.033554 756.658691,216.007339 
	C759.276184,200.976776 761.915466,185.949905 764.596863,170.930664 
	C764.908936,169.182816 765.551880,167.494080 766.436096,164.394028 
	C769.538147,172.585052 769.915771,179.882812 771.323486,186.935379 
	C773.562683,198.153549 775.567749,209.419235 777.880066,220.621841 
	C781.777832,239.505875 794.048706,249.715973 812.393738,253.546509 
	C825.233215,256.227478 838.055603,258.990662 850.878113,261.751862 
	C852.313477,262.060974 853.700073,262.596710 855.189819,263.577423 
	C837.436646,269.171112 819.006775,272.059692 801.034119,278.073608 
z"/>
</svg>